<svg width="14" height="18" viewBox="0 0 14 18" fill="none" xmlns="http://www.w3.org/2000/svg">
<path d="M3.5 0C3.40044 0 3.30088 0.0400781 3.22504 0.119851C3.07338 0.279396 3.07338 0.538786 3.22504 0.698331L4.24436 1.7706C3.08709 2.66393 2.33333 4.10134 2.33333 5.72727H11.6667C11.6667 4.10134 10.9129 2.66393 9.75564 1.7706L10.775 0.698331C10.9266 0.537967 10.9266 0.280214 10.775 0.119851C10.6233 -0.0396946 10.3767 -0.0396946 10.225 0.119851L9.07205 1.33274C8.44715 1.006 7.74526 0.818182 7 0.818182C6.25474 0.818182 5.55285 1.006 4.92795 1.33274L3.77496 0.119851C3.69912 0.0400781 3.59956 0 3.5 0ZM4.66667 3.27273H5.44444V4.09091H4.66667V3.27273ZM8.55556 3.27273H9.33333V4.09091H8.55556V3.27273ZM0.777778 6.54545C0.348444 6.54545 0 6.912 0 7.36364V12.2727C0 12.7244 0.348444 13.0909 0.777778 13.0909C1.20711 13.0909 1.55556 12.7244 1.55556 12.2727V7.36364C1.55556 6.912 1.20711 6.54545 0.777778 6.54545ZM2.33333 6.54545V13.0909C2.33333 13.5425 2.68178 13.9091 3.11111 13.9091H3.88889V16.7727C3.88889 17.4502 4.41156 18 5.05556 18C5.69956 18 6.22222 17.4502 6.22222 16.7727V13.9091H7.77778V16.7727C7.77778 17.4502 8.30044 18 8.94444 18C9.58844 18 10.1111 17.4502 10.1111 16.7727V13.9091H10.8889C11.3182 13.9091 11.6667 13.5425 11.6667 13.0909V6.54545H2.33333ZM13.2222 6.54545C12.7929 6.54545 12.4444 6.912 12.4444 7.36364V12.2727C12.4444 12.7244 12.7929 13.0909 13.2222 13.0909C13.6516 13.0909 14 12.7244 14 12.2727V7.36364C14 6.912 13.6516 6.54545 13.2222 6.54545Z" fill="#DCDCDC"/>
</svg>
