<svg width="22" height="31" viewBox="0 0 22 31" fill="none" xmlns="http://www.w3.org/2000/svg">
<path d="M3.00104 22.9999L19.001 22.9999" stroke="white" stroke-width="2" stroke-miterlimit="10" stroke-linecap="round" stroke-linejoin="round"/>
<path d="M9.40103 5.39987L12.601 5.39987" stroke="white" stroke-width="2" stroke-miterlimit="10" stroke-linecap="round" stroke-linejoin="round"/>
<path d="M11.001 27.7999C11.8847 27.7999 12.601 27.0835 12.601 26.1999C12.601 25.3162 11.8847 24.5999 11.001 24.5999C10.1174 24.5999 9.40103 25.3162 9.40103 26.1999C9.40103 27.0835 10.1174 27.7999 11.001 27.7999Z" fill="white"/>
<path d="M5.81066 1.66667L16.18 1.66667C19.5027 1.66667 20.3333 3.11693 20.3333 8.90148L20.3333 22.4317C20.3333 28.2163 19.5027 29.6665 16.1893 29.6665L5.81066 29.6665C2.49732 29.683 1.66666 28.2328 1.66666 22.4482L1.66666 8.90148C1.66666 3.11693 2.49732 1.66667 5.81066 1.66667Z" stroke="white" stroke-width="2" stroke-linecap="round" stroke-linejoin="round"/>
</svg>
