<svg width="32" height="32" viewBox="0 0 32 32" fill="none" xmlns="http://www.w3.org/2000/svg">
<path d="M23.9999 9.547C23.9199 9.53366 23.8266 9.53366 23.7466 9.547C21.9066 9.48033 20.4399 7.97366 20.4399 6.10699C20.4399 4.20033 21.9733 2.66699 23.8799 2.66699C25.7866 2.66699 27.3199 4.21366 27.3199 6.10699C27.3066 7.97366 25.8399 9.48033 23.9999 9.547Z" stroke="white" stroke-width="2" stroke-linecap="round" stroke-linejoin="round"/>
<path d="M22.6266 19.2537C24.4533 19.5603 26.4666 19.2403 27.8799 18.2937C29.7599 17.0403 29.7599 14.987 27.8799 13.7337C26.4533 12.787 24.4133 12.467 22.5866 12.787" stroke="white" stroke-width="2" stroke-linecap="round" stroke-linejoin="round"/>
<path d="M7.95992 9.547C8.03992 9.53366 8.13325 9.53366 8.21325 9.547C10.0532 9.48033 11.5199 7.97366 11.5199 6.10699C11.5199 4.20033 9.98658 2.66699 8.07992 2.66699C6.17325 2.66699 4.63992 4.21366 4.63992 6.10699C4.65325 7.97366 6.11992 9.48033 7.95992 9.547Z" stroke="white" stroke-width="2" stroke-linecap="round" stroke-linejoin="round"/>
<path d="M9.33325 19.2537C7.50659 19.5603 5.49326 19.2403 4.07992 18.2937C2.19992 17.0403 2.19992 14.987 4.07992 13.7337C5.50659 12.787 7.54659 12.467 9.37325 12.787" stroke="white" stroke-width="2" stroke-linecap="round" stroke-linejoin="round"/>
<path d="M16 19.507C15.92 19.4936 15.8266 19.4936 15.7466 19.507C13.9066 19.4403 12.44 17.9336 12.44 16.067C12.44 14.1603 13.9733 12.627 15.88 12.627C17.7866 12.627 19.32 14.1736 19.32 16.067C19.3066 17.9336 17.84 19.4536 16 19.507Z" stroke="white" stroke-width="2" stroke-linecap="round" stroke-linejoin="round"/>
<path d="M12.12 23.7065C10.24 24.9598 10.24 27.0131 12.12 28.2665C14.2533 29.6931 17.7466 29.6931 19.88 28.2665C21.76 27.0131 21.76 24.9598 19.88 23.7065C17.76 22.2932 14.2533 22.2932 12.12 23.7065Z" stroke="white" stroke-width="2" stroke-linecap="round" stroke-linejoin="round"/>
</svg>
