<svg width="32" height="34" viewBox="0 0 32 34" fill="none" xmlns="http://www.w3.org/2000/svg">
<path d="M1 8.22581C1 4.23097 4.23097 1 8.22581 1L7.14195 2.80645" stroke="white" stroke-width="2" stroke-linecap="round" stroke-linejoin="round"/>
<path d="M30.9355 25.7742C30.9355 29.769 27.7045 33 23.7097 33L24.7935 31.1936" stroke="white" stroke-width="2" stroke-linecap="round" stroke-linejoin="round"/>
<path d="M14.4193 16.4839C17.2698 16.4839 19.5806 14.1731 19.5806 11.3226C19.5806 8.47207 17.2698 6.16129 14.4193 6.16129C11.5688 6.16129 9.25806 8.47207 9.25806 11.3226C9.25806 14.1731 11.5688 16.4839 14.4193 16.4839Z" stroke="white" stroke-width="2" stroke-linecap="round" stroke-linejoin="round"/>
<path d="M23.2865 26.806C23.2865 22.8111 19.3123 19.5802 14.4194 19.5802C9.52647 19.5802 5.55228 22.8111 5.55228 26.806" stroke="white" stroke-width="2" stroke-linecap="round" stroke-linejoin="round"/>
</svg>
