<svg width="32" height="32" viewBox="0 0 32 32" fill="none" xmlns="http://www.w3.org/2000/svg">
<path d="M2.6665 12.0003V8.66699C2.6665 5.34699 5.3465 2.66699 8.6665 2.66699H11.9998" stroke="white" stroke-width="2" stroke-linecap="round" stroke-linejoin="round"/>
<path d="M20 2.66699H23.3333C26.6533 2.66699 29.3333 5.34699 29.3333 8.66699V12.0003" stroke="white" stroke-width="2" stroke-linecap="round" stroke-linejoin="round"/>
<path d="M29.3335 21.333V23.333C29.3335 26.653 26.6535 29.333 23.3335 29.333H21.3335" stroke="white" stroke-width="2" stroke-linecap="round" stroke-linejoin="round"/>
<path d="M12 29.3333H8.66666C5.34666 29.3333 2.66666 26.6533 2.66666 23.3333V20" stroke="white" stroke-width="2" stroke-linecap="round" stroke-linejoin="round"/>
<path d="M16 15C18.2091 15 20 13.2091 20 11C20 8.79086 18.2091 7 16 7C13.7909 7 12 8.79086 12 11C12 13.2091 13.7909 15 16 15Z" stroke="white" stroke-width="2" stroke-linecap="round" stroke-linejoin="round"/>
<path d="M23 25C23 21.6829 19.8626 19 16 19C12.1374 19 9 21.6829 9 25" stroke="white" stroke-width="2" stroke-linecap="round" stroke-linejoin="round"/>
</svg>
