<svg width="32" height="37" viewBox="0 0 32 37" fill="none" xmlns="http://www.w3.org/2000/svg">
<path d="M29.3332 17.3337V12.0003C29.3332 5.33366 26.6665 2.66699 19.9998 2.66699H11.9998C5.33317 2.66699 2.6665 5.33366 2.6665 12.0003V20.0003C2.6665 26.667 5.33317 29.3337 11.9998 29.3337H17.3332" stroke="white" stroke-width="2" stroke-linecap="round" stroke-linejoin="round"/>
<path d="M30.7682 26.5618C30.9296 26.5618 31.0642 26.618 31.1719 26.7303C31.2795 26.8315 31.3333 26.9663 31.3333 27.1348C31.3333 27.3034 31.2795 27.4438 31.1719 27.5562C31.0642 27.6573 30.9296 27.7079 30.7682 27.7079H29.6378C29.584 28.5618 29.2987 29.2584 28.782 29.7978C28.2653 30.3371 27.5763 30.6742 26.7151 30.809C26.9735 30.8989 27.2157 31.0449 27.4418 31.2472C27.6786 31.4494 27.9262 31.7247 28.1845 32.073L30.09 34.7191C30.2191 34.8989 30.2837 35.073 30.2837 35.2416C30.2837 35.4438 30.203 35.6236 30.0415 35.7809C29.88 35.927 29.6917 36 29.4764 36C29.1965 36 28.965 35.8764 28.782 35.6292L26.2307 32.073C25.94 31.6573 25.6601 31.3708 25.391 31.2135C25.1326 31.0562 24.7828 30.9775 24.3414 30.9775H22.7912C22.5329 30.9775 22.3337 30.9157 22.1938 30.7921C22.0646 30.6685 22 30.4944 22 30.2697C22 30.0449 22.0646 29.8708 22.1938 29.7472C22.3337 29.6236 22.5329 29.5618 22.7912 29.5618H25.6009C27.0757 29.5618 27.8777 28.9438 28.0069 27.7079H22.5652C22.4037 27.7079 22.2691 27.6573 22.1615 27.5562C22.0538 27.4438 22 27.3034 22 27.1348C22 26.9663 22.0538 26.8315 22.1615 26.7303C22.2691 26.618 22.4037 26.5618 22.5652 26.5618H27.9262C27.6678 25.618 26.8927 25.1461 25.6009 25.1461H22.5652C22.4037 25.1461 22.2691 25.0955 22.1615 24.9944C22.0538 24.882 22 24.7416 22 24.573C22 24.4045 22.0538 24.2697 22.1615 24.1685C22.2691 24.0562 22.4037 24 22.5652 24H30.7682C30.9296 24 31.0642 24.0562 31.1719 24.1685C31.2795 24.2697 31.3333 24.4045 31.3333 24.573C31.3333 24.7416 31.2795 24.882 31.1719 24.9944C31.0642 25.0955 30.9296 25.1461 30.7682 25.1461H28.7982C29.1749 25.4831 29.4279 25.9551 29.5571 26.5618H30.7682Z" fill="white" stroke="white" stroke-width="0.5"/>
<path d="M24 21L16.0667 13.44L13.0444 17.76L7 12" stroke="white" stroke-width="2" stroke-linecap="round" stroke-linejoin="round"/>
<path d="M20 21H24V18" stroke="white" stroke-width="2" stroke-linecap="round" stroke-linejoin="round"/>
</svg>
