<svg width="70" height="70" viewBox="0 0 70 70" fill="none" xmlns="http://www.w3.org/2000/svg">
<circle cx="35" cy="35" r="35" fill="#FD506F"/>
<g clip-path="url(#clip0_177_22004)">
<path d="M31.6055 22.8079H37.3219C37.2392 23.3466 37.0065 23.7459 36.6293 24.0171C36.2232 24.3092 35.637 24.4618 34.8581 24.4618H31.8478C31.5574 24.4618 31.3181 24.5265 31.144 24.67L31.144 24.67L31.141 24.6726C30.9769 24.8191 30.9 25.023 30.9 25.2697C30.9 25.5163 30.9769 25.7202 31.141 25.8667L31.141 25.8668L31.144 25.8693C31.3181 26.0128 31.5574 26.0775 31.8478 26.0775H33.5087C33.972 26.0775 34.3276 26.1548 34.5838 26.3004L34.5838 26.3004L34.5853 26.3013C34.8559 26.4489 35.1456 26.7228 35.4528 27.133L35.4528 27.133L35.4536 27.134L38.1872 30.6902L38.1871 30.6902L38.1881 30.6914C38.402 30.961 38.6782 31.1 39.0104 31.1C39.2642 31.1 39.489 31.0189 39.6804 30.8573L39.6805 30.8574L39.6832 30.8549C39.8735 30.6819 39.9754 30.4765 39.9754 30.2416C39.9754 30.0444 39.8943 29.8493 39.7471 29.6581L39.747 29.658L37.7055 27.0119L37.7055 27.0119L37.7046 27.0108C37.425 26.659 37.1548 26.3779 36.8937 26.1697C36.7388 26.0405 36.5765 25.9329 36.4068 25.8474C37.1906 25.6822 37.8353 25.3573 38.3362 24.8694C38.889 24.3309 39.2012 23.6416 39.2758 22.8079H40.3945C40.5884 22.8079 40.757 22.7505 40.8929 22.6314L40.893 22.6315L40.8968 22.6278C41.0324 22.4957 41.1 22.3289 41.1 22.1348C41.1 21.9416 41.0328 21.7788 40.8949 21.6569C40.7597 21.5261 40.5905 21.4618 40.3945 21.4618H39.1758C39.0524 20.9707 38.8401 20.5641 38.5367 20.2461H40.3945C40.5884 20.2461 40.757 20.1887 40.8929 20.0696L40.893 20.0697L40.8968 20.066C41.0324 19.9339 41.1 19.7671 41.1 19.573C41.1 19.3798 41.0328 19.217 40.8949 19.0951C40.7597 18.9643 40.5905 18.9 40.3945 18.9H31.6055C31.4095 18.9 31.2403 18.9643 31.1051 19.0951C30.9672 19.217 30.9 19.3798 30.9 19.573C30.9 19.7671 30.9676 19.9339 31.1032 20.066L31.1031 20.0661L31.1071 20.0696C31.243 20.1887 31.4116 20.2461 31.6055 20.2461H34.8581C35.5401 20.2461 36.0747 20.3625 36.4696 20.5869C36.8232 20.7879 37.0699 21.0781 37.2113 21.4618H31.6055C31.4095 21.4618 31.2403 21.5261 31.1051 21.6569C30.9672 21.7788 30.9 21.9416 30.9 22.1348C30.9 22.3289 30.9676 22.4957 31.1032 22.6278L31.1031 22.6279L31.1071 22.6314C31.243 22.7505 31.4116 22.8079 31.6055 22.8079Z" fill="#FDFDFE" stroke="#FDFDFE" stroke-width="0.2"/>
<path d="M20 20V45.5C20 47.99 22.01 50 24.5 50H50" stroke="white" stroke-width="2.5" stroke-miterlimit="10" stroke-linecap="round" stroke-linejoin="round"/>
<path d="M24.5 45.2632L31.385 37.2232C32.525 35.9032 34.55 35.8132 35.78 37.0582L37.205 38.4832C38.435 39.7132 40.46 39.6382 41.6 38.3182L48.5 30.2632" stroke="white" stroke-width="2.5" stroke-miterlimit="10" stroke-linecap="round" stroke-linejoin="round"/>
</g>
<defs>
<clipPath id="clip0_177_22004">
<rect width="42" height="42" fill="white" transform="translate(14 14)"/>
</clipPath>
</defs>
</svg>
