<?xml version="1.0" encoding="utf-8"?>
<!-- Generator: Adobe Illustrator 22.0.1, SVG Export Plug-In . SVG Version: 6.00 Build 0)  -->
<svg version="1.1" id="Layer_1" xmlns="http://www.w3.org/2000/svg" xmlns:xlink="http://www.w3.org/1999/xlink" x="0px" y="0px"
	 viewBox="0 0 690 120" style="enable-background:new 0 0 690 120;" xml:space="preserve">
<style type="text/css">
	.st0{fill-rule:evenodd;clip-rule:evenodd;fill:#773393;}
	.st1{fill:#773393;}
</style>
<path class="st0" d="M364.3,48.1c-1.6-1.1-2.8-2.2-4.6-3.2c-1.7-1-3.5-1.6-5.6-2c-4.8-0.8-9.1,0.1-12.7,2
	c-18.7,9.9-11.9,44.4,12.8,41.3c5.4-0.7,6.8-2.7,10-4.9c0.7,8.8-4.2,12-12.7,11.7c-6.6-0.3-8-3.1-8.9-3.4
	c-0.9-0.4-10.4-0.3-11.8-0.1c4.5,16.6,30.6,16.7,39.1,7.4c5.7-6.2,5.1-14.3,5.1-24.2c0-9.6,0.2-19.4,0-29.1l-10.6,0.1L364.3,48.1z
	 M341.4,65.6c-1.1-16.4,22.4-17.5,23.3-2.1C365.8,80.5,342.4,80.7,341.4,65.6z"/>
<path class="st0" d="M494.5,82c10.6,9.3,23.8,6,30.3-4.7c9.1-14.9-1.4-38.1-20.6-34.4c-4.8,0.9-7,3.2-9.8,5.2l0-21l-10.7,0l0,59.2
	l10.7,0L494.5,82z M503.7,52.5c7.4-1.2,12.6,3.8,13.5,10.2c1,7.4-3.2,13.5-9.3,14.6C491.8,80.3,488.7,55,503.7,52.5z"/>
<path class="st0" d="M398,86.3c0-7-0.2-14.3,0.1-21.3c0.2-5.5,1.8-12.1,8.5-12.6c7.6-0.5,7.9,6.5,8,13.2c0.1,3.5-0.2,18.7,0.1,20.7
	l10.3,0c0.6-2,0.2-15.8,0.2-19c0-5.6,0.7-12.6-1.6-17.3c-1.9-3.9-6-7.1-11.7-7.5c-6.6-0.4-10,2.7-13.8,5.2l0-20.7l-10.7,0l0,59.3
	L398,86.3z"/>
<path class="st0" d="M75.5,73.8c-2.1,1.1-2.8,2.5-6,3.5c-7,2.2-15.5-0.9-16.6-9.3l34.3,0c0.4-11.8-4.5-21.9-16.6-24.8
	C57.3,40.1,47,47.6,43.8,56.9c-4.5,12.9,2.1,24.3,10.7,28.3c11.7,5.5,25.3,0.6,29.7-7.2C82.1,76.8,77.9,74.8,75.5,73.8 M53.5,59.6
	c0.1-1.9,2.9-4.8,4.1-5.7c6.6-4.6,17.3-1.6,18.8,5.7L53.5,59.6z"/>
<path class="st0" d="M294.9,86.3c1.5-9.5-4.1-32.6,8.4-33.9c7.6-0.7,8.1,6.3,8.2,12.9c0.1,7,0,14,0,21l10.7,0c0-6.4,0-12.8,0-19.2
	c0-5.6,0.6-12.7-1.6-17.2c-3.8-7.6-14.5-9.7-22.7-4.1l-2.9,2l0-4.2l-10.7,0l0.1,42.7L294.9,86.3z"/>
<path class="st0" d="M435.5,43.6c-0.3,7.3-0.6,24.1,0.9,30.6c1.9,8.3,8.2,13.2,18,13.2c9.6-0.1,16.1-5.2,17.8-13.4
	c1.2-5.6,1.1-24.2,0.9-30.4l-10.7,0c-0.2,6.9,0,14,0,20.8c0,6.8-0.7,12.9-7.9,12.9c-7.2,0-8-6.1-8.1-12.9c0-6.9,0.1-13.9,0-20.8
	L435.5,43.6z"/>
<path class="st0" d="M173.3,43.6c-0.3,7.2-0.6,24.3,0.9,30.6c1.9,8.3,8.2,13.2,18,13.2c9.6-0.1,16.1-5.2,17.7-13.4
	c1.2-5.6,1.1-24.1,0.9-30.4l-10.7,0c-0.2,6.9,0,14,0,20.9c0,6.8-0.7,12.9-7.9,12.9c-7.2,0-8-6.1-8.1-12.9c0-6.9,0.1-13.8,0-20.8
	L173.3,43.6z"/>
<path class="st0" d="M137.8,52.4c-1.5-3.1-6.3-6.7-10.5-8.3c-4.9-1.8-11.2-2.1-16.6-0.6c-22.9,6.3-21.5,37.2-1,42.8
	c11.6,3.2,22.7-0.8,27.5-7.8c-0.2-0.3-0.1-0.2-0.4-0.5l-3.6-2.5c-1.5-1.1-2.8-2-4.2-2.8c-1.9,1.6-2.7,2.9-6.2,4
	c-2.8,0.9-6.4,1-9.3,0.2c-11.8-3.3-11.5-20.4,0.1-23.8c9.6-2.8,13.7,3,15.4,4L137.8,52.4z"/>
<path class="st0" d="M29.9,87.1c0-10.5,0-21,0-31.4c0-5.5,1-9.2,3.9-12c2.4-2.4,6.2-4.4,11.2-4.5l0-11.4c-12.5,0.3-22,8.4-25.2,17.7
	c-1.9,5.5-1.2,14-1.2,20.2c0,7.1,0,14.3,0,21.5L29.9,87.1z"/>
<polygon class="st0" points="236.7,52.9 242.1,52.9 242.1,86.3 252.8,86.3 252.8,52.9 259.2,52.9 259.2,43.6 252.9,43.5 252.7,27.8 
	242.1,27.8 242.1,43.6 236.6,43.7 "/>
<path class="st0" d="M154.3,48.7l0-5l-9.2,0l0,42.8l10.7,0c0-7.2-0.2-14.8,0-21.9c0.1-3.5,0.5-10.3,4.1-12.1
	c1.8-0.9,3.1,0.1,4.7,0.4l3.4-9.2C160.4,41.5,158.7,42.7,154.3,48.7"/>
<path class="st0" d="M611.2,86.3c1.1-6-2.5-18.5,5-19.1c4.1-0.3,4.6,3.5,4.6,7.2c0,4,0,7.9,0,11.9l6,0c0-4-0.1-8.2,0-12.2
	c0.2-3.6,1.3-6.7,4.9-6.9c7.2-0.5,3.3,11.6,4.6,19.1l5.8,0c0.4-2,0.1-8.8,0.1-11.3c0-3.4,0.2-7.2-1.3-9.9c-1.3-2.2-4.2-3.9-8.1-3.4
	c-4,0.4-5,2.4-7,4.2c-1.1-2.2-3.4-4.2-6.8-4.2c-4.7-0.1-6.2,2.4-7.7,3.1l-0.1-2.6l-5.9,0l0.1,24.1L611.2,86.3z"/>
<polygon class="st0" points="220.4,86.3 231.1,86.3 231.1,44.8 231.1,43.6 220.4,43.6 "/>
<polygon class="st0" points="263.9,86.3 274.6,86.3 274.6,44.8 274.5,43.6 263.9,43.6 263.8,44.8 "/>
<path class="st0" d="M450.1,1.5c-5.7,0.6-10.2,2.2-14.6,4.7c-1.9,1.1-4.2,2.6-5.6,3.8c-5.8,5-0.3,10.4,5,5.8c1.7-1.5,3.6-2.8,5.7-4
	c9.3-5.1,21.4-4,30.2,1.9c1.3,0.9,4.1,3.4,6.2,3c2.9-0.6,3.5-4,1.9-6.1C474.1,4.5,461.2,0.3,450.1,1.5"/>
<path class="st0" d="M600.3,75.9c1-7.4-4.4-13.2-10.7-14.1c-7.6-1.1-13.5,4.3-14.4,10.6C572.9,89.4,598,92.4,600.3,75.9 M586,67.6
	c4.1-1,7.4,1.6,8.1,5c0.8,4.1-1.3,7.7-4.6,8.5C580.1,83.4,578.2,69.5,586,67.6z"/>
<path class="st0" d="M565.8,78.8c-1.3,0.9-1.6,1.7-3.7,2.3c-10.5,2.9-13.4-10.7-5.1-13.3c5.1-1.6,7.4,1.3,8.9,2.2l4.8-2.8
	c-5.2-9.2-24.4-6.7-24.6,7.1c-0.1,6.3,4.1,10.8,9,12.2c5.7,1.6,13.6-0.4,15.4-4.6C569.1,80.9,567.3,79.4,565.8,78.8"/>
<path class="st0" d="M452.7,11.4c-5.9,0.4-11.5,2.3-15.8,5.9c-5.5,4.6-1.4,7.7,1,7.7c3.8,0.1,5-6,15.6-6.4
	c10.7-0.3,12.1,5.7,16.2,5.3c2-0.2,3.6-2,3.3-4.2C472.4,15.4,460.5,10.9,452.7,11.4"/>
<path class="st0" d="M452.2,21.5c-4.3,0.6-11.6,3.9-10.2,8.4c0.7,2.3,3.6,3.4,5.9,1.6c1.8-1.5,2.9-3,6.5-2.8
	c3.9,0.2,4.4,2.4,6.5,2.9c2.8,0.6,5.2-2,4.2-4.8C463.8,23.4,457.1,20.8,452.2,21.5"/>
<path class="st0" d="M24.4,12.3c-8.2,2.4-6.9,18.3,1.4,15.9c3.1-0.9,5.5-4.8,5.5-8.8C31.3,15.3,28.8,11.1,24.4,12.3"/>
<path class="st0" d="M223.7,26.4c-8.5,2.7-4.4,16.1,4.5,13.1C236.2,36.8,232.6,23.6,223.7,26.4"/>
<path class="st0" d="M268.4,26.1c-9.1,1.3-7.2,15.1,2,13.7c3.4-0.5,6.2-3.8,5.6-8C275.5,28.5,272.2,25.6,268.4,26.1"/>
<path class="st0" d="M14.2,46.1c1.4-6.7,3.4-7.5,5.8-10.8c-2.2-5.8-11.9-9.3-19.4-9c2.2,1.7,5,1.7,9,7.5
	C11.9,37,13.4,41.4,14.2,46.1"/>
<path class="st0" d="M452.5,32.7c-5,1.8-2.4,8.5,2.3,7.1C459.4,38.3,457,31,452.5,32.7"/>
<path class="st0" d="M534.4,83.9c0.3,4.3,7.4,3.8,6.9-0.8C540.8,78.6,534,79.1,534.4,83.9"/>
<path class="st1" d="M393.3,103.8c0-0.7-0.2-1.2-0.7-1.7c-0.5-0.5-1.1-0.7-1.7-0.7h-6.4v4.9h6.4c0.7,0,1.2-0.2,1.7-0.7
	C393,105,393.3,104.4,393.3,103.8 M389,108.2h-4.6v6.9h-2V99.3h8.4c1.2,0,2.2,0.4,3.1,1.3c0.9,0.9,1.3,1.9,1.3,3.1
	c0,1.1-0.4,2.1-1.2,3c-0.8,0.8-1.7,1.3-2.8,1.4l4,6.9H393L389,108.2z"/>
<path class="st1" d="M406.2,106.2c-0.8-0.7-1.7-1.1-2.9-1.1c-1.2,0-2.1,0.4-2.9,1.2c-0.8,0.8-1.2,1.8-1.2,2.9c0,0.4,0.1,0.9,0.2,1.3
	L406.2,106.2z M409.4,109.2c0,1.7-0.6,3.1-1.8,4.3c-1.2,1.2-2.6,1.8-4.3,1.8c-1.7,0-3.1-0.6-4.3-1.8c-1.2-1.2-1.8-2.6-1.8-4.3
	c0-1.7,0.6-3.1,1.8-4.3c1.2-1.2,2.6-1.8,4.3-1.8c1.2,0,2.3,0.3,3.3,1c1,0.7,1.8,1.5,2.3,2.6l-8.4,5.5c0.8,0.7,1.7,1.1,2.8,1.1
	c1.1,0,2.1-0.4,2.9-1.2c0.8-0.8,1.2-1.8,1.2-2.9H409.4z"/>
<path class="st1" d="M421.6,109.2c0-1.1-0.4-2.1-1.2-2.9c-0.8-0.8-1.8-1.2-2.9-1.2c-1.1,0-2.1,0.4-2.9,1.2c-0.8,0.8-1.2,1.8-1.2,2.9
	c0,1.1,0.4,2.1,1.2,2.9c0.8,0.8,1.8,1.2,2.9,1.2c1.1,0,2.1-0.4,2.9-1.2C421.2,111.3,421.6,110.3,421.6,109.2 M423.6,109.2
	c0,1.7-0.6,3.1-1.8,4.3c-1.2,1.2-2.6,1.8-4.3,1.8c-1.7,0-3.1-0.6-4.3-1.8c-1.2-1.2-1.8-2.6-1.8-4.3c0-1.6,0.6-3.1,1.7-4.3
	c1.2-1.2,2.5-1.8,4.2-1.8c1.7,0,3.2,0.7,4.3,2v-5.7h2V109.2z"/>
<path class="st1" d="M435.1,106.2c-0.8-0.7-1.7-1.1-2.9-1.1c-1.2,0-2.1,0.4-2.9,1.2c-0.8,0.8-1.2,1.8-1.2,2.9c0,0.4,0.1,0.9,0.2,1.3
	L435.1,106.2z M438.3,109.2c0,1.7-0.6,3.1-1.8,4.3c-1.2,1.2-2.6,1.8-4.3,1.8c-1.7,0-3.1-0.6-4.3-1.8c-1.2-1.2-1.8-2.6-1.8-4.3
	c0-1.7,0.6-3.1,1.8-4.3c1.2-1.2,2.6-1.8,4.3-1.8c1.2,0,2.3,0.3,3.3,1c1,0.7,1.8,1.5,2.3,2.6l-8.4,5.5c0.8,0.7,1.7,1.1,2.8,1.1
	c1.1,0,2.1-0.4,2.9-1.2c0.8-0.8,1.2-1.8,1.2-2.9H438.3z"/>
<path class="st1" d="M446.4,101.3c-0.9,0-1.6,0.3-2.2,0.9c-0.6,0.6-0.9,1.4-0.9,2.2v0.8h1.9v2h-1.9v7.9h-2v-7.9h-1v-2h1v-0.8
	c0-1.3,0.5-2.5,1.6-3.6c1-1,2.2-1.5,3.6-1.5V101.3z"/>
<path class="st1" d="M448.4,99.3h2v2h-2V99.3z M448.4,103.3h2v11.8h-2V103.3z"/>
<path class="st1" d="M462,108.2c0-0.9-0.3-1.6-0.9-2.2c-0.6-0.6-1.3-0.9-2.2-0.9c-0.9,0-1.6,0.3-2.2,0.9c-0.6,0.6-0.9,1.4-0.9,2.2
	v6.9h-2v-6.9c0-1.4,0.5-2.5,1.5-3.6c1-1,2.2-1.5,3.6-1.5c1.3,0,2.5,0.5,3.6,1.5c1,1,1.5,2.2,1.5,3.6v6.9h-2V108.2z"/>
<path class="st1" d="M467.5,99.3h2v2h-2V99.3z M467.5,103.3h2v11.8h-2V103.3z"/>
<path class="st1" d="M481.1,108.2c0-0.9-0.3-1.6-0.9-2.2c-0.6-0.6-1.3-0.9-2.2-0.9c-0.9,0-1.6,0.3-2.2,0.9c-0.6,0.6-0.9,1.4-0.9,2.2
	v6.9h-2v-6.9c0-1.4,0.5-2.5,1.5-3.6c1-1,2.2-1.5,3.6-1.5c1.3,0,2.5,0.5,3.6,1.5c1,1,1.5,2.2,1.5,3.6v6.9h-2V108.2z"/>
<path class="st1" d="M495.8,109.2c0-1.1-0.4-2.1-1.2-2.9c-0.8-0.8-1.8-1.2-2.9-1.2c-1.1,0-2.1,0.4-2.9,1.2c-0.8,0.8-1.2,1.8-1.2,2.9
	c0,1.1,0.4,2.1,1.2,2.9c0.8,0.8,1.8,1.2,2.9,1.2c1.1,0,2.1-0.4,2.9-1.2C495.4,111.3,495.8,110.3,495.8,109.2 M497.8,113.9
	c0,1.7-0.6,3.1-1.8,4.3c-1.2,1.2-2.6,1.8-4.3,1.8c-1,0-2-0.3-2.9-0.8c-0.9-0.5-1.7-1.2-2.2-2l1.7-1.1c0.8,1.2,2,1.9,3.4,1.9
	c1.3,0,2.3-0.5,3.1-1.4c0.7-0.8,1.1-1.9,1.1-3.3c-1.2,1.3-2.6,1.9-4.3,1.9c-1.6,0-3-0.6-4.2-1.8c-1.1-1.2-1.7-2.6-1.7-4.3
	c0-1.7,0.6-3.1,1.8-4.3c1.2-1.2,2.6-1.8,4.3-1.8c1.7,0,3.1,0.6,4.3,1.8c1.2,1.2,1.8,2.6,1.8,4.3V113.9z"/>
<path class="st1" d="M519,103.8c0-0.7-0.2-1.2-0.7-1.7c-0.5-0.5-1.1-0.7-1.7-0.7h-6.4v4.9h6.4c0.7,0,1.2-0.2,1.7-0.7
	C518.8,105,519,104.4,519,103.8 M514.8,108.2h-4.6v6.9h-2V99.3h8.4c1.2,0,2.2,0.4,3.1,1.3c0.9,0.9,1.3,1.9,1.3,3.1
	c0,1.1-0.4,2.1-1.2,3c-0.8,0.8-1.7,1.3-2.8,1.4l4,6.9h-2.3L514.8,108.2z"/>
<path class="st1" d="M531.9,106.2c-0.8-0.7-1.7-1.1-2.9-1.1c-1.2,0-2.1,0.4-2.9,1.2c-0.8,0.8-1.2,1.8-1.2,2.9c0,0.4,0.1,0.9,0.2,1.3
	L531.9,106.2z M535.2,109.2c0,1.7-0.6,3.1-1.8,4.3c-1.2,1.2-2.6,1.8-4.3,1.8c-1.7,0-3.1-0.6-4.3-1.8c-1.2-1.2-1.8-2.6-1.8-4.3
	c0-1.7,0.6-3.1,1.8-4.3c1.2-1.2,2.6-1.8,4.3-1.8c1.2,0,2.3,0.3,3.3,1c1,0.7,1.8,1.5,2.3,2.6l-8.4,5.5c0.8,0.7,1.7,1.1,2.8,1.1
	c1.1,0,2.1-0.4,2.9-1.2c0.8-0.8,1.2-1.8,1.2-2.9H535.2z"/>
<path class="st1" d="M549.4,109.2c0,1.7-0.6,3.1-1.8,4.3c-1.2,1.2-2.6,1.8-4.3,1.8c-1.7,0-3.1-0.6-4.3-1.8c-1.2-1.2-1.8-2.6-1.8-4.3
	c0-1.7,0.6-3.2,1.8-4.3c1.2-1.2,2.6-1.8,4.3-1.8c0.8,0,1.7,0.2,2.5,0.5l-0.8,1.8c-0.6-0.2-1.1-0.3-1.7-0.3c-1.2,0-2.1,0.4-2.9,1.2
	c-0.8,0.8-1.2,1.8-1.2,2.9c0,1.1,0.4,2.1,1.2,2.9c0.8,0.8,1.8,1.2,2.9,1.2c1.1,0,2.1-0.4,2.9-1.2c0.8-0.8,1.2-1.8,1.2-2.9H549.4z"/>
<path class="st1" d="M557,105c-0.9,0-1.6,0.3-2.2,0.9c-0.6,0.6-0.9,1.4-0.9,2.2v6.9h-2v-6.9c0-1.4,0.5-2.5,1.6-3.6
	c1-1,2.2-1.5,3.6-1.5V105z"/>
<path class="st1" d="M569.2,110.1c0,1.3-0.5,2.5-1.5,3.6c-1,1-2.2,1.5-3.6,1.5c-1.4,0-2.6-0.5-3.6-1.5c-1-1-1.5-2.2-1.5-3.6v-6.9h2
	v6.9c0,0.9,0.3,1.6,0.9,2.2c0.6,0.6,1.3,0.9,2.2,0.9c0.9,0,1.6-0.3,2.2-0.9c0.6-0.6,0.9-1.3,0.9-2.2v-6.9h2V110.1z"/>
<path class="st1" d="M572.6,99.3h2v2h-2V99.3z M572.6,103.3h2v11.8h-2V103.3z"/>
<polygon class="st1" points="581,115.1 579,115.1 579,105.2 577.1,105.2 577.1,103.3 579,103.3 579,99.3 581,99.3 581,103.3 
	583,103.3 583,105.2 581,105.2 "/>
<path class="st1" d="M599.1,107.8c0-0.7-0.2-1.4-0.7-1.9c-0.5-0.6-1.1-0.8-1.8-0.8c-0.8,0-1.4,0.3-1.9,0.8c-0.5,0.5-0.7,1.2-0.7,2
	v7.3h-2v-7.3c0-0.8-0.2-1.5-0.7-2c-0.4-0.5-1.1-0.8-1.9-0.8c-0.7,0-1.3,0.3-1.8,0.8c-0.5,0.5-0.7,1.2-0.7,1.9v7.3h-2v-7.3
	c0-1.3,0.4-2.4,1.3-3.3c0.9-0.9,2-1.4,3.2-1.4c1.5,0,2.7,0.6,3.6,1.7c0.9-1.1,2.1-1.7,3.5-1.7c1.3,0,2.3,0.5,3.2,1.4
	c0.9,0.9,1.3,2,1.3,3.3v7.3h-2V107.8z"/>
<path class="st1" d="M612.5,106.2c-0.8-0.7-1.7-1.1-2.9-1.1c-1.2,0-2.1,0.4-2.9,1.2c-0.8,0.8-1.2,1.8-1.2,2.9c0,0.4,0.1,0.9,0.2,1.3
	L612.5,106.2z M615.8,109.2c0,1.7-0.6,3.1-1.8,4.3c-1.2,1.2-2.6,1.8-4.3,1.8c-1.7,0-3.1-0.6-4.3-1.8c-1.2-1.2-1.8-2.6-1.8-4.3
	c0-1.7,0.6-3.1,1.8-4.3c1.2-1.2,2.6-1.8,4.3-1.8c1.2,0,2.3,0.3,3.3,1c1,0.7,1.8,1.5,2.3,2.6l-8.4,5.5c0.8,0.7,1.7,1.1,2.8,1.1
	c1.1,0,2.1-0.4,2.9-1.2c0.8-0.8,1.2-1.8,1.2-2.9H615.8z"/>
<path class="st1" d="M626.5,108.2c0-0.9-0.3-1.6-0.9-2.2c-0.6-0.6-1.3-0.9-2.2-0.9c-0.9,0-1.6,0.3-2.2,0.9c-0.6,0.6-0.9,1.4-0.9,2.2
	v6.9h-2v-6.9c0-1.4,0.5-2.5,1.5-3.6c1-1,2.2-1.5,3.6-1.5c1.3,0,2.5,0.5,3.6,1.5c1,1,1.5,2.2,1.5,3.6v6.9h-2V108.2z"/>
<polygon class="st1" points="634.4,115.1 632.4,115.1 632.4,105.2 630.5,105.2 630.5,103.3 632.4,103.3 632.4,99.3 634.4,99.3 
	634.4,103.3 636.4,103.3 636.4,105.2 634.4,105.2 "/>
<polygon class="st1" points="646,60 646,51.6 642.8,51.6 642.8,50.5 650.4,50.5 650.4,51.6 647.3,51.6 647.3,60 "/>
<path class="st1" d="M652.1,60v-9.5h1.9l2.3,6.8c0.2,0.6,0.4,1.1,0.5,1.4c0.1-0.3,0.3-0.9,0.5-1.5l2.3-6.6h1.7V60H660v-8l-2.8,8
	h-1.1l-2.8-8.1V60H652.1z"/>
<g>
</g>
<g>
</g>
<g>
</g>
<g>
</g>
<g>
</g>
<g>
</g>
</svg>
