<svg width="70" height="70" viewBox="0 0 70 70" fill="none" xmlns="http://www.w3.org/2000/svg">
<circle cx="35" cy="35" r="35" fill="#783293"/>
<path d="M31.0625 45.125C38.829 45.125 45.1251 38.829 45.1251 31.0625C45.1251 23.296 38.829 17 31.0625 17C23.296 17 17 23.296 17 31.0625C17 38.829 23.296 45.125 31.0625 45.125Z" stroke="white" stroke-width="2.5" stroke-linecap="round" stroke-linejoin="round"/>
<path d="M52.9999 52.9999L41.75 41.75" stroke="white" stroke-width="2.5" stroke-linecap="round" stroke-linejoin="round"/>
<path d="M30.9218 31.1127C32.8957 31.1127 34.4959 29.5299 34.4959 27.5773C34.4959 25.6248 32.8957 24.042 30.9218 24.042C28.9479 24.042 27.3477 25.6248 27.3477 27.5773C27.3477 29.5299 28.9479 31.1127 30.9218 31.1127Z" fill="white"/>
<path d="M37.062 38.1829C37.062 35.4465 34.3099 33.2334 30.9216 33.2334C27.5333 33.2334 24.7812 35.4465 24.7812 38.1829" fill="white"/>
</svg>
