<svg width="30" height="30" viewBox="0 0 30 30" fill="none" xmlns="http://www.w3.org/2000/svg">
<path d="M12.0004 22.7147C17.9178 22.7147 22.7148 17.9178 22.7148 12.0004C22.7148 6.08311 17.9178 1.28613 12.0004 1.28613C6.08312 1.28613 1.28613 6.08311 1.28613 12.0004C1.28613 17.9178 6.08312 22.7147 12.0004 22.7147Z" stroke="#783293" stroke-width="2" stroke-linecap="round" stroke-linejoin="round"/>
<path d="M28.7149 28.7149L20.1436 20.1436" stroke="#783293" stroke-width="2" stroke-linecap="round" stroke-linejoin="round"/>
<path d="M11.8931 12.0386C13.397 12.0386 14.6162 10.8326 14.6162 9.34497C14.6162 7.85733 13.397 6.65137 11.8931 6.65137C10.3891 6.65137 9.16992 7.85733 9.16992 9.34497C9.16992 10.8326 10.3891 12.0386 11.8931 12.0386Z" fill="#783293"/>
<path d="M16.5716 17.4253C16.5716 15.3405 14.4748 13.6543 11.8932 13.6543C9.31167 13.6543 7.21484 15.3405 7.21484 17.4253" fill="#783293"/>
</svg>
