<svg width="23" height="29" viewBox="0 0 23 29" fill="none" xmlns="http://www.w3.org/2000/svg">
<path d="M11.4682 4.07154L11.3333 3.94837L11.1985 4.07154C8.32207 6.69848 6.18416 9.11883 4.76406 11.3045C3.34526 13.4882 2.63333 15.4525 2.63333 17.1632C2.63333 22.4119 6.47452 26.1436 11.3333 26.1436C16.1921 26.1436 20.0333 22.4119 20.0333 17.1632C20.0333 15.4455 19.3215 13.4812 17.9026 11.2991C16.4824 9.11521 14.3445 6.6984 11.4682 4.07154ZM11.72 24.3135L11.7178 24.3137C8.78124 24.4928 5.35999 22.8154 4.57424 18.6426C4.48402 18.1318 4.89528 17.6465 5.42583 17.6465C5.84959 17.6465 6.19562 17.9421 6.27767 18.3618C6.88161 21.6281 9.64149 22.7489 11.6434 22.5886C12.1385 22.5674 12.55 22.9588 12.55 23.4511C12.55 23.9087 12.1826 24.2904 11.72 24.3135ZM0.2 17.1632C0.2 14.8663 1.12428 12.3384 3.0006 9.57321C4.85486 6.84052 7.6307 3.88832 11.3333 0.715307C15.036 3.88832 17.8118 6.84052 19.6661 9.57321C21.5424 12.3384 22.4667 14.8663 22.4667 17.1632C22.4667 24.0992 17.1792 28.576 11.3333 28.576C5.4875 28.576 0.2 24.0992 0.2 17.1632Z" fill="#9264F5" stroke="white" stroke-width="0.4"/>
</svg>
