<svg width="52" height="52" viewBox="0 0 52 52" fill="none" xmlns="http://www.w3.org/2000/svg">
<path d="M47.667 13.0002V18.2435C47.667 21.6668 45.5003 23.8335 42.077 23.8335H34.667V8.68849C34.667 6.28349 36.6387 4.3335 39.0437 4.3335C41.4053 4.35516 43.572 5.30849 45.132 6.86849C46.692 8.45016 47.667 10.6168 47.667 13.0002Z" fill="#F021B6"/>
<path d="M4.33301 15.1668V45.5002C4.33301 47.2985 6.36967 48.3168 7.79967 47.2335L11.5047 44.4602C12.3713 43.8102 13.5847 43.8968 14.3647 44.6768L17.9613 48.2952C18.8063 49.1402 20.193 49.1402 21.038 48.2952L24.678 44.6552C25.4363 43.8968 26.6497 43.8102 27.4947 44.4602L31.1997 47.2335C32.6297 48.2952 34.6663 47.2768 34.6663 45.5002V8.66683C34.6663 6.2835 36.6163 4.3335 38.9997 4.3335H15.1663H12.9997C6.49967 4.3335 4.33301 8.21183 4.33301 13.0002V15.1668Z" fill="#F021B6"/>
<path d="M14 33V31.0456H14.9222C15.4012 31.0456 15.8084 30.8798 16.1437 30.5483C16.479 30.2091 16.6467 29.8159 16.6467 29.3687V20.383C16.6467 19.5349 16.8503 18.7794 17.2575 18.1163C17.6727 17.4533 18.2315 16.9367 18.9341 16.5667C19.6367 16.1889 20.4232 16 21.2934 16C22.0758 16 22.7625 16.1658 23.3533 16.4973C23.9441 16.8288 24.4551 17.3068 24.8862 17.9313C25.3253 18.5481 25.6966 19.2844 26 20.1401L24.0599 20.7531C23.7645 19.8356 23.3972 19.1417 22.9581 18.6714C22.519 18.2011 21.9601 17.966 21.2814 17.966C20.5389 17.966 19.9401 18.1973 19.485 18.6599C19.0379 19.1147 18.8144 19.7161 18.8144 20.4639L18.8024 31.0456H25.1976V33H14ZM14 25.5639V23.598H22.9222V25.5639H14Z" fill="white"/>
</svg>
