<svg width="52" height="52" viewBox="0 0 52 52" fill="none" xmlns="http://www.w3.org/2000/svg">
<path d="M46.952 30.9835L46.0853 41.8168C45.7603 45.1318 45.5003 47.6668 39.6286 47.6668H12.372C6.50031 47.6668 6.24031 45.1318 5.91531 41.8168L5.04864 30.9835C4.87531 29.1852 5.43864 27.5168 6.45697 26.2385C6.47864 26.2168 6.47864 26.2168 6.50031 26.1952C7.69197 24.7435 9.49031 23.8335 11.5053 23.8335H40.4953C42.5103 23.8335 44.287 24.7435 45.457 26.1518C45.4786 26.1735 45.5003 26.1952 45.5003 26.2168C46.562 27.4952 47.147 29.1635 46.952 30.9835Z" fill="#03A9F5"/>
<path d="M7.58301 24.7651V13.6068C7.58301 6.2401 9.42467 4.39844 16.7913 4.39844H19.543C22.2947 4.39844 22.923 5.22177 23.963 6.60844L26.7147 10.2918C27.408 11.2018 27.8197 11.7651 29.6613 11.7651H35.1863C42.553 11.7651 44.3947 13.6068 44.3947 20.9734V24.8518" fill="#03A9F5"/>
<path d="M20.4316 36.8335H31.5683" stroke="white" stroke-width="1.5" stroke-miterlimit="10" stroke-linecap="round" stroke-linejoin="round"/>
<path d="M8 25H44" stroke="white" stroke-width="1.5" stroke-miterlimit="10" stroke-linecap="round" stroke-linejoin="round"/>
</svg>
